HIERARCHY
ROOT Hips
{
	OFFSET 0.000000 0.000000 0.000000
	CHANNELS 6 Xposition Yposition Zposition Zrotation Yrotation Xrotation 
	JOINT LHipJoint
	{
		OFFSET 0.000000 0.000000 0.000000
		CHANNELS 3 Zrotation Yrotation Xrotation
		JOINT LeftUpLeg
		{
			OFFSET 1.363060 -1.794630 0.839290
			CHANNELS 3 Zrotation Yrotation Xrotation
			JOINT LeftLeg
			{
				OFFSET 2.448110 -6.726130 0.000000
				CHANNELS 3 Zrotation Yrotation Xrotation
				JOINT LeftFoot
				{
					OFFSET 2.562200 -7.039590 0.000000
					CHANNELS 3 Zrotation Yrotation Xrotation
					JOINT LeftToeBase
					{
						OFFSET 0.157640 -0.433110 2.322550
						CHANNELS 3 Zrotation Yrotation Xrotation
						End Site
						{
							OFFSET 0.000000 0.000000 0.000000
						}
					}
				}
			}
		}
	}
	JOINT RHipJoint
	{
		OFFSET 0.000000 0.000000 0.000000
		CHANNELS 3 Zrotation Yrotation Xrotation
		JOINT RightUpLeg
		{
			OFFSET -1.305520 -1.794630 0.839290
			CHANNELS 3 Zrotation Yrotation Xrotation
			JOINT RightLeg
			{
				OFFSET -2.542530 -6.985550 0.000000
				CHANNELS 3 Zrotation Yrotation Xrotation
				JOINT RightFoot
				{
					OFFSET -2.568260 -7.056230 0.000000
					CHANNELS 3 Zrotation Yrotation Xrotation
					JOINT RightToeBase
					{
						OFFSET -0.164730 -0.452590 2.363150
						CHANNELS 3 Zrotation Yrotation Xrotation
						End Site
						{
							OFFSET 0.000000 0.000000 0.000000
						}
					}
				}
			}
		}
	}
}
MOTION
Frames: 31
Frame Time: 0.008333
-0.815579 16.943928 -2.791234 -145.531117 82.128906 -133.156778 -12.299181 2.690608 -1.452667 -12.025183 7.458335 -15.251477 0.475845 2.761116 50.012600 1.355236 6.439906 10.658517 1.558400 0.000000 -63.512600 7.582208 -0.590840 4.704001 2.141127 14.937191 -31.148021 3.174210 -0.183611 12.499773 1.517352 10.926317 1.015518 1.360300 0.000000 -62.358000
-0.605649 16.946071 -2.852725 -143.793256 81.704457 -131.596318 -12.600630 2.506335 -1.703693 -11.532687 8.514222 -17.353935 0.723183 2.939856 53.756913 1.650528 8.180065 12.326886 2.194500 0.000000 -56.743400 7.443786 -0.724966 4.667172 2.718662 15.292785 -30.432581 3.151745 -0.281007 13.151875 1.462671 10.392737 1.761230 1.378100 0.000001 -61.414800
-0.397616 16.948673 -2.914670 -142.839501 81.245601 -130.799139 -12.862189 2.309481 -1.914629 -11.191259 9.384931 -19.508042 0.921096 3.119522 57.285788 1.929539 10.035475 13.181754 2.872699 0.000000 -49.443800 7.315352 -0.849511 4.587442 3.357889 15.302043 -29.686273 3.151710 -0.348659 13.689486 1.411008 9.909246 2.238902 1.355001 0.000000 -60.547900
-0.190632 16.951789 -2.976567 -142.661231 80.745494 -130.736106 -13.079052 2.113929 -2.070592 -11.012330 10.033035 -21.729045 1.086292 3.303773 60.558889 2.181748 11.905081 13.253334 3.505000 0.000000 -42.753600 7.203765 -0.963207 4.474008 4.017291 14.993380 -28.925447 3.171439 -0.385693 14.115034 1.362944 9.483076 2.418563 1.295400 -0.000001 -59.730000
0.016102 16.955630 -3.037983 -143.207166 80.198370 -131.338636 -13.247576 1.928941 -2.160320 -11.003391 10.432859 -24.029931 1.231470 3.490692 63.549169 2.403054 13.690688 12.618698 4.005901 0.000000 -37.228900 7.114577 -1.064717 4.337217 4.655991 14.409091 -28.164350 3.207167 -0.391997 14.428007 1.318302 9.117786 2.301364 1.207200 0.000000 -58.934900
0.223274 16.960391 -3.098713 -144.375530 79.598523 -132.493207 -13.365308 1.759868 -2.179315 -11.162335 10.578197 -26.414927 1.362615 3.675713 66.234564 2.591367 15.301797 11.350417 4.300599 0.000000 -32.787900 7.050926 -1.153100 4.187744 5.240243 13.605718 -27.409266 3.254605 -0.368092 14.622608 1.275830 8.809493 1.916885 1.099000 -0.000000 -58.145299
0.431639 16.966283 -3.158962 -146.007443 78.936848 -134.030926 -13.433241 1.607262 -2.124037 -11.468318 10.472743 -28.882946 1.479882 3.851120 68.583341 2.748006 16.672867 9.573644 4.352401 -0.000000 -29.398400 7.010112 -1.229703 4.040390 5.751982 12.658499 -26.662949 3.310059 -0.314126 14.683182 1.232740 8.536897 1.321731 0.977800 0.000000 -57.351200
0.641460 16.973534 -3.218664 -147.958397 78.215551 -135.812389 -13.450356 1.471388 -2.003323 -11.900344 10.144152 -31.403651 1.577143 4.011336 70.560389 2.871249 17.743815 7.361394 4.138900 -0.000000 -26.472600 6.992095 -1.294305 3.901477 6.175621 11.633913 -25.909494 3.368337 -0.232657 14.598480 1.186635 8.283542 0.583615 0.851300 0.000000 -56.570000
0.852858 16.982369 -3.278085 -150.076001 77.439096 -137.694896 -13.418673 1.349651 -1.825945 -12.424875 9.623952 -33.935613 1.645819 4.149257 72.119429 2.962970 18.490572 4.872707 3.694700 -0.000000 -23.961100 6.993236 -1.348362 3.777286 6.508147 10.600610 -25.127683 3.424758 -0.126408 14.354069 1.134787 8.022691 -0.221767 0.725700 0.000000 -55.824500
1.065720 16.992962 -3.337325 -152.237436 76.620098 -139.572801 -13.340964 1.239422 -1.605081 -13.007626 8.955811 -36.426204 1.676813 4.259274 73.215758 3.025202 18.912834 2.283787 3.089100 0.000000 -21.896000 7.010368 -1.393358 3.669557 6.751461 9.614323 -24.291293 3.474436 0.000585 13.941993 1.075298 7.729952 -1.023139 0.606300 0.000000 -55.142300
1.279808 17.005304 -3.396507 -154.350678 75.777250 -141.375103 -13.221359 1.139113 -1.357392 -13.617518 8.193786 -38.822669 1.662403 4.338834 73.818557 3.059203 19.025954 -0.271382 2.397499 0.000000 -19.988400 7.040415 -1.430927 3.576464 6.911451 8.715173 -23.374803 3.513006 0.143426 13.362346 1.007377 7.386473 -1.761500 0.496900 0.000000 -54.546600
1.494580 17.019320 -3.455650 -156.362758 74.932539 -143.075360 -13.063989 1.047233 -1.099016 -14.232098 7.390525 -41.067375 1.600053 4.384584 73.899924 3.070477 18.886768 -2.599331 1.722300 0.000000 -18.530400 7.082414 -1.462175 3.491946 6.993703 7.920815 -22.354157 3.536798 0.296153 12.626137 0.931825 6.985679 -2.395026 0.400400 -0.000000 -54.053000
1.709680 17.034621 -3.514621 -158.249565 74.110071 -144.671732 -12.873827 0.963813 -0.845591 -14.837543 6.597261 -43.116272 1.490833 4.396040 73.455094 3.064551 18.561317 -4.591719 1.131700 0.000000 -17.393200 7.135640 -1.488132 3.408867 7.006329 7.232457 -21.216955 3.543702 0.452607 11.754828 0.850733 6.532200 -2.901960 0.317400 0.000000 -53.664500
1.924608 17.050540 -3.573544 -159.995633 73.329945 -146.170494 -12.656963 0.888689 -0.610025 -15.425925 5.855841 -44.932141 1.339799 4.373154 72.493434 3.048812 18.128759 -6.174626 0.669101 0.000000 -16.544400 7.199460 -1.509775 3.318546 6.958646 6.635137 -19.957881 3.533694 0.606561 10.777989 0.767426 6.043521 -3.278652 0.247400 0.000000 -53.375100
2.139103 17.066270 -3.632274 -161.615017 72.609998 -147.600617 -12.418197 0.822434 -0.399361 -15.996714 5.189595 -46.487867 1.154809 4.315651 71.035552 3.031610 17.671158 -7.307238 0.353900 0.000000 -16.089499 7.275567 -1.527507 3.212638 6.856858 6.097619 -18.583883 3.508115 0.752116 9.732719 0.686601 5.551763 -3.538491 0.189600 -0.000000 -53.179300
2.352890 17.080706 -3.691130 -163.096891 71.962644 -148.961743 -12.165608 0.763814 -0.218641 -16.539774 4.615408 -47.772068 0.942160 4.226072 69.120516 3.018758 17.242145 -8.053023 0.164501 0.000000 -15.743700 7.361164 -1.542386 3.084013 6.715506 5.592618 -17.105931 3.470765 0.884835 8.654396 0.612541 5.088561 -3.703281 0.142500 -0.000000 -53.064600
2.565923 17.092689 -3.750299 -164.451016 71.397061 -150.266363 -11.905314 0.711566 -0.066402 -17.046209 4.131046 -48.784426 0.707707 4.106212 66.790800 3.014686 16.876866 -8.491076 0.072900 0.000000 -15.394200 7.455327 -1.554807 2.927237 6.543890 5.086012 -15.544973 3.425867 1.001306 7.579983 0.550038 4.692727 -3.801743 0.106100 -0.000001 -53.032100
2.778336 17.101073 -3.810213 -165.668662 70.915889 -151.499473 -11.644665 0.662392 0.064052 -17.495219 3.724178 -49.543486 0.456344 3.957931 64.093022 3.020680 16.581262 -8.716369 0.048100 -0.000000 -14.995101 7.553788 -1.565968 2.741781 6.356404 4.557594 -13.928213 3.378485 1.100246 6.539369 0.502276 4.391518 -3.859841 0.080400 -0.000000 -53.085500
2.990298 17.104882 -3.871325 -166.747228 70.519585 -152.647701 -11.389375 0.613037 0.182085 -17.864934 3.375753 -50.076608 0.190858 3.782627 61.071865 3.034984 16.335048 -8.834415 0.057900 0.000000 -14.464200 7.652908 -1.576639 2.528415 6.163723 3.989655 -12.285804 3.333051 1.181367 5.559505 0.471662 4.207772 -3.899867 0.065700 -0.000000 -53.243400
3.202217 17.103381 -3.934254 -167.668185 70.203451 -153.673327 -11.145471 0.559195 0.301069 -18.125200 3.063391 -50.427598 -0.086118 3.580635 57.767967 3.053359 16.100247 -8.925795 0.078601 -0.000000 -13.843600 7.746390 -1.588519 2.293663 5.981577 3.383657 -10.653015 3.293625 1.246344 4.658150 0.457921 4.143209 -3.934907 0.060901 -0.000000 -53.524000
3.414554 17.096171 -3.999793 -168.404252 69.961299 -154.524652 -10.918428 0.496694 0.436227 -18.244220 2.765642 -50.650199 -0.372667 3.351181 54.215511 3.069900 15.828210 -9.053086 0.092000 -0.000000 -13.156200 7.826641 -1.603802 2.047415 5.829045 2.754741 -9.067516 3.263461 1.298010 3.846858 0.458629 4.182201 -3.969577 0.064100 0.000000 -53.943900
3.627499 17.083373 -4.067952 -168.976874 69.785041 -155.214354 -10.709006 0.424549 0.596251 -18.210664 2.469534 -50.760938 -0.667270 3.090297 50.425252 3.077503 15.477563 -9.228217 0.093501 -0.000000 -12.585300 7.894744 -1.622467 1.789704 5.705811 2.089923 -7.545110 3.242884 1.336478 3.139001 0.473141 4.322461 -4.001740 0.074300 0.000000 -54.541300
3.841623 17.065237 -4.139887 -169.329868 69.666379 -155.656241 -10.524046 0.338538 0.797108 -17.990725 2.167234 -50.821676 -0.966865 2.794398 46.415210 3.069630 15.007088 -9.463266 0.080200 0.000000 -12.112300 7.938885 -1.648281 1.536555 5.643150 1.434001 -6.122707 3.234049 1.366388 2.532008 0.494625 4.510269 -4.021797 0.087400 0.000000 -55.305200
4.056839 17.042508 -4.215458 -169.490752 69.595468 -155.883481 -10.364489 0.238705 1.039973 -17.586848 1.868493 -50.817589 -1.267431 2.455828 42.171051 3.039152 14.401734 -9.708832 0.064400 -0.000000 -11.941500 7.962061 -1.680815 1.283152 5.636410 0.771122 -4.792674 3.235286 1.386520 2.031195 0.521670 4.733550 -4.017312 0.102701 0.000000 -56.251300
4.273419 17.015907 -4.295504 -169.425325 69.566038 -155.852863 -10.237198 0.122155 1.329864 -16.986428 1.591904 -50.765605 -1.561553 2.068086 37.691129 2.980607 13.657288 -9.924309 0.056200 0.000000 -12.072400 7.956889 -1.722561 1.037284 5.706177 0.131014 -3.562656 3.246631 1.398967 1.630920 0.548651 4.944403 -3.974967 0.117500 0.000000 -57.350500
4.491093 16.986319 -4.380095 -169.146187 69.572259 -155.595804 -10.147023 -0.012848 1.657848 -16.202500 1.372612 -50.629449 -1.839042 1.625009 32.970102 2.888733 12.790472 -10.051422 0.066500 -0.000000 -12.525000 7.924390 -1.773181 0.792651 5.848417 -0.495965 -2.407581 3.266097 1.401741 1.331825 0.574036 5.127773 -3.883284 0.132000 0.000000 -58.580100
4.709713 16.954478 -4.469503 -168.656384 69.611356 -155.138121 -10.100546 -0.169161 2.009511 -15.253937 1.254108 -50.373819 -2.085631 1.126277 28.031879 2.760054 11.829174 -10.042443 0.100300 0.000000 -13.241000 7.864372 -1.832737 0.545135 6.058616 -1.113010 -1.299342 3.291839 1.392820 1.134451 0.596552 5.271176 -3.734685 0.146301 -0.000000 -59.898700
4.928755 16.921016 -4.563699 -167.973864 69.681015 -154.538653 -10.103136 -0.349144 2.357212 -14.179238 1.291122 -49.949586 -2.285285 0.583051 22.948897 2.591855 10.802789 -9.861515 0.156099 -0.000000 -14.192200 7.779975 -1.900307 0.286013 6.318625 -1.738458 -0.190719 3.321173 1.368343 1.042051 0.617133 5.381641 -3.524443 0.161400 -0.000000 -61.263700
5.147979 16.886369 -4.662754 -167.122127 69.778766 -153.856669 -10.155723 -0.551837 2.668193 -13.038445 1.535205 -49.339959 -2.426890 0.022451 17.868572 2.384003 9.724059 -9.519902 0.220900 0.000000 -15.254000 7.675522 -1.975254 0.012019 6.602940 -2.384822 0.953674 3.351043 1.324599 1.063432 0.637329 5.473894 -3.254049 0.178900 0.000000 -62.630501
5.367167 16.851010 -4.766356 -166.153382 69.899444 -153.179106 -10.250341 -0.769850 2.904691 -11.924684 2.032789 -48.560418 -2.512775 -0.514143 13.014144 2.137552 8.575046 -9.071862 0.275700 -0.000000 -16.352100 7.559998 -2.056267 -0.278377 6.870831 -3.070068 2.164190 3.376962 1.257371 1.212284 0.659839 5.574519 -2.927501 0.200900 -0.000000 -63.972000
5.586716 16.815505 -4.874158 -165.150035 70.035351 -152.594163 -10.367609 -0.987674 3.042273 -10.954052 2.796995 -47.686854 -2.563105 -0.984688 8.647858 1.857955 7.315504 -8.619906 0.298999 0.000000 -17.410800 7.446661 -2.141847 -0.577664 7.070168 -3.800887 3.429400 3.393190 1.163490 1.514126 0.687108 5.711910 -2.555213 0.230200 -0.000001 -65.284200
